# MagicaVoxel @ Ephtracy

# group
o 

# material
mtllib Requin_v3-6.mtl
usemtl palette

# normals
vn -1 0 0
vn 1 0 0
vn 0 0 1
vn 0 0 -1
vn 0 -1 0
vn 0 1 0

# texcoords
vt 0.126953 0.5
vt 0.130859 0.5

# verts
v -1 0.5 2.8
v -1 0.5 -0.4
v -1 0.9 1.6
v -1 0.9 1.2
v -1 1.1 2.4
v -1 1.1 1.6
v -1 1.1 1.2
v -1 1.1 0
v -1 1.3 2.8
v -1 1.3 2.4
v -1 1.3 0
v -1 1.3 -0.4
v -1 3.1 2.8
v -1 3.1 -0.4
v -0.8 0.7 4
v -0.8 0.7 2.8
v -0.8 1.3 3.2
v -0.8 1.3 2.8
v -0.8 1.5 4
v -0.8 1.5 3.2
v -0.8 2.9 4
v -0.8 2.9 2.8
v -0.6 0.9 -0.4
v -0.6 0.9 -2.6
v -0.6 1.3 -0.4
v -0.6 1.3 -0.8
v -0.6 1.5 -0.8
v -0.6 1.5 -2
v -0.6 1.7 -2
v -0.6 1.7 -2.6
v -0.6 2.9 -0.4
v -0.6 2.9 -2.6
v -0.4 1.3 -2.6
v -0.4 1.3 -4.2
v -0.4 1.5 -4
v -0.4 1.5 -4.2
v -0.4 1.7 -2.6
v -0.4 1.7 -4
v -0.4 2.7 -2.6
v -0.4 2.7 -4.2
v 0.4 1.3 -2.6
v 0.4 1.3 -4.2
v 0.4 1.5 -4
v 0.4 1.5 -4.2
v 0.4 1.7 -2.6
v 0.4 1.7 -4
v 0.4 2.7 -2.6
v 0.4 2.7 -4.2
v 0.6 0.9 -0.4
v 0.6 0.9 -2.6
v 0.6 1.3 -0.4
v 0.6 1.3 -0.8
v 0.6 1.5 -0.8
v 0.6 1.5 -2
v 0.6 1.7 -2
v 0.6 1.7 -2.6
v 0.6 2.9 -0.4
v 0.6 2.9 -2.6
v 0.8 0.7 4
v 0.8 0.7 2.8
v 0.8 1.3 3.2
v 0.8 1.3 2.8
v 0.8 1.5 4
v 0.8 1.5 3.2
v 0.8 2.9 4
v 0.8 2.9 2.8
v 1 0.5 2.8
v 1 0.5 -0.4
v 1 0.9 1.6
v 1 0.9 1.2
v 1 1.1 2.4
v 1 1.1 1.6
v 1 1.1 1.2
v 1 1.1 0
v 1 1.3 2.8
v 1 1.3 2.4
v 1 1.3 0
v 1 1.3 -0.4
v 1 3.1 2.8
v 1 3.1 -0.4
v -0.8 0.7 4
v -0.8 1.5 4
v -0.8 2.9 4
v 0.8 0.7 4
v 0.8 1.5 4
v 0.8 2.9 4
v -1 0.5 2.8
v -1 1.3 2.8
v -1 3.1 2.8
v -0.8 0.7 2.8
v -0.8 1.3 2.8
v -0.8 2.9 2.8
v 0.8 0.7 2.8
v 0.8 1.3 2.8
v 0.8 2.9 2.8
v 1 0.5 2.8
v 1 1.3 2.8
v 1 3.1 2.8
v -1 0.5 -0.4
v -1 1.3 -0.4
v -1 3.1 -0.4
v -0.6 0.9 -0.4
v -0.6 1.3 -0.4
v -0.6 2.9 -0.4
v 0.6 0.9 -0.4
v 0.6 1.3 -0.4
v 0.6 2.9 -0.4
v 1 0.5 -0.4
v 1 1.3 -0.4
v 1 3.1 -0.4
v -0.6 0.9 -2.6
v -0.6 1.7 -2.6
v -0.6 2.9 -2.6
v -0.4 1.3 -2.6
v -0.4 1.7 -2.6
v -0.4 2.7 -2.6
v 0.4 1.3 -2.6
v 0.4 1.7 -2.6
v 0.4 2.7 -2.6
v 0.6 0.9 -2.6
v 0.6 1.7 -2.6
v 0.6 2.9 -2.6
v -0.4 1.3 -4.2
v -0.4 1.5 -4.2
v -0.4 2.7 -4.2
v 0.4 1.3 -4.2
v 0.4 1.5 -4.2
v 0.4 2.7 -4.2
v -1 0.5 2.8
v 1 0.5 2.8
v -1 0.5 -0.4
v 1 0.5 -0.4
v -0.8 0.7 4
v 0.8 0.7 4
v -0.8 0.7 2.8
v 0.8 0.7 2.8
v -0.6 0.9 -0.4
v 0.6 0.9 -0.4
v -0.6 0.9 -2.6
v 0.6 0.9 -2.6
v -0.4 1.3 -2.6
v 0.4 1.3 -2.6
v -0.4 1.3 -4.2
v 0.4 1.3 -4.2
v -0.4 2.7 -2.6
v 0.4 2.7 -2.6
v -0.4 2.7 -4.2
v 0.4 2.7 -4.2
v -0.8 2.9 4
v 0.8 2.9 4
v -0.8 2.9 2.8
v 0.8 2.9 2.8
v -0.6 2.9 -0.4
v 0.6 2.9 -0.4
v -0.6 2.9 -2.6
v 0.6 2.9 -2.6
v -1 3.1 2.8
v 1 3.1 2.8
v -1 3.1 -0.4
v 1 3.1 -0.4

# faces
f 3/2/1 2/2/1 1/2/1
f 4/2/1 2/2/1 3/2/1
f 5/2/1 3/2/1 1/2/1
f 6/1/1 4/1/1 3/1/1
f 6/2/1 3/2/1 5/2/1
f 7/2/1 2/2/1 4/2/1
f 7/1/1 4/1/1 6/1/1
f 8/2/1 2/2/1 7/2/1
f 9/2/1 5/2/1 1/2/1
f 10/1/1 6/1/1 5/1/1
f 10/2/1 5/2/1 9/2/1
f 10/1/1 7/1/1 6/1/1
f 10/1/1 8/1/1 7/1/1
f 11/2/1 2/2/1 8/2/1
f 11/1/1 8/1/1 10/1/1
f 12/2/1 2/2/1 11/2/1
f 13/1/1 10/1/1 9/1/1
f 13/1/1 11/1/1 10/1/1
f 13/1/1 12/1/1 11/1/1
f 14/1/1 12/1/1 13/1/1
f 17/2/1 16/2/1 15/2/1
f 18/2/1 16/2/1 17/2/1
f 19/2/1 17/2/1 15/2/1
f 20/1/1 18/1/1 17/1/1
f 20/2/1 17/2/1 19/2/1
f 21/1/1 20/1/1 19/1/1
f 22/1/1 18/1/1 20/1/1
f 22/1/1 20/1/1 21/1/1
f 25/2/1 24/2/1 23/2/1
f 26/2/1 24/2/1 25/2/1
f 27/1/1 26/1/1 25/1/1
f 27/2/1 24/2/1 26/2/1
f 28/2/1 24/2/1 27/2/1
f 29/1/1 28/1/1 27/1/1
f 29/2/1 24/2/1 28/2/1
f 30/2/1 24/2/1 29/2/1
f 31/1/1 27/1/1 25/1/1
f 31/1/1 29/1/1 27/1/1
f 31/1/1 30/1/1 29/1/1
f 32/1/1 30/1/1 31/1/1
f 35/2/1 34/2/1 33/2/1
f 36/2/1 34/2/1 35/2/1
f 37/2/1 35/2/1 33/2/1
f 38/1/1 36/1/1 35/1/1
f 38/2/1 35/2/1 37/2/1
f 39/1/1 38/1/1 37/1/1
f 40/1/1 36/1/1 38/1/1
f 40/1/1 38/1/1 39/1/1
f 41/2/2 42/2/2 43/2/2
f 43/2/2 42/2/2 44/2/2
f 41/2/2 43/2/2 45/2/2
f 43/1/2 44/1/2 46/1/2
f 45/2/2 43/2/2 46/2/2
f 45/1/2 46/1/2 47/1/2
f 46/1/2 44/1/2 48/1/2
f 47/1/2 46/1/2 48/1/2
f 49/2/2 50/2/2 51/2/2
f 51/2/2 50/2/2 52/2/2
f 51/1/2 52/1/2 53/1/2
f 52/2/2 50/2/2 53/2/2
f 53/2/2 50/2/2 54/2/2
f 53/1/2 54/1/2 55/1/2
f 54/2/2 50/2/2 55/2/2
f 55/2/2 50/2/2 56/2/2
f 51/1/2 53/1/2 57/1/2
f 53/1/2 55/1/2 57/1/2
f 55/1/2 56/1/2 57/1/2
f 57/1/2 56/1/2 58/1/2
f 59/2/2 60/2/2 61/2/2
f 61/2/2 60/2/2 62/2/2
f 59/2/2 61/2/2 63/2/2
f 61/1/2 62/1/2 64/1/2
f 63/2/2 61/2/2 64/2/2
f 63/1/2 64/1/2 65/1/2
f 64/1/2 62/1/2 66/1/2
f 65/1/2 64/1/2 66/1/2
f 67/2/2 68/2/2 69/2/2
f 69/2/2 68/2/2 70/2/2
f 67/2/2 69/2/2 71/2/2
f 69/1/2 70/1/2 72/1/2
f 71/2/2 69/2/2 72/2/2
f 70/2/2 68/2/2 73/2/2
f 72/1/2 70/1/2 73/1/2
f 73/2/2 68/2/2 74/2/2
f 67/2/2 71/2/2 75/2/2
f 71/1/2 72/1/2 76/1/2
f 75/2/2 71/2/2 76/2/2
f 72/1/2 73/1/2 76/1/2
f 73/1/2 74/1/2 76/1/2
f 74/2/2 68/2/2 77/2/2
f 76/1/2 74/1/2 77/1/2
f 77/2/2 68/2/2 78/2/2
f 75/1/2 76/1/2 79/1/2
f 76/1/2 77/1/2 79/1/2
f 77/1/2 78/1/2 79/1/2
f 79/1/2 78/1/2 80/1/2
f 84/2/3 82/2/3 81/2/3
f 85/1/3 83/1/3 82/1/3
f 85/2/3 82/2/3 84/2/3
f 86/1/3 83/1/3 85/1/3
f 90/2/3 88/2/3 87/2/3
f 91/1/3 89/1/3 88/1/3
f 91/2/3 88/2/3 90/2/3
f 92/1/3 89/1/3 91/1/3
f 93/2/3 90/2/3 87/2/3
f 95/1/3 89/1/3 92/1/3
f 96/2/3 94/2/3 93/2/3
f 96/2/3 93/2/3 87/2/3
f 97/1/3 95/1/3 94/1/3
f 97/2/3 94/2/3 96/2/3
f 98/1/3 89/1/3 95/1/3
f 98/1/3 95/1/3 97/1/3
f 99/2/4 100/2/4 102/2/4
f 100/1/4 101/1/4 103/1/4
f 102/2/4 100/2/4 103/2/4
f 103/1/4 101/1/4 104/1/4
f 99/2/4 102/2/4 105/2/4
f 104/1/4 101/1/4 107/1/4
f 105/2/4 106/2/4 108/2/4
f 99/2/4 105/2/4 108/2/4
f 106/1/4 107/1/4 109/1/4
f 108/2/4 106/2/4 109/2/4
f 107/1/4 101/1/4 110/1/4
f 109/1/4 107/1/4 110/1/4
f 111/2/4 112/2/4 114/2/4
f 112/1/4 113/1/4 115/1/4
f 114/2/4 112/2/4 115/2/4
f 115/1/4 113/1/4 116/1/4
f 111/2/4 114/2/4 117/2/4
f 116/1/4 113/1/4 119/1/4
f 117/2/4 118/2/4 120/2/4
f 111/2/4 117/2/4 120/2/4
f 118/1/4 119/1/4 121/1/4
f 120/2/4 118/2/4 121/2/4
f 119/1/4 113/1/4 122/1/4
f 121/1/4 119/1/4 122/1/4
f 123/2/4 124/2/4 126/2/4
f 124/1/4 125/1/4 127/1/4
f 126/2/4 124/2/4 127/2/4
f 127/1/4 125/1/4 128/1/4
f 131/2/5 130/2/5 129/2/5
f 132/2/5 130/2/5 131/2/5
f 135/2/5 134/2/5 133/2/5
f 136/2/5 134/2/5 135/2/5
f 139/2/5 138/2/5 137/2/5
f 140/2/5 138/2/5 139/2/5
f 143/2/5 142/2/5 141/2/5
f 144/2/5 142/2/5 143/2/5
f 145/1/6 146/1/6 147/1/6
f 147/1/6 146/1/6 148/1/6
f 149/1/6 150/1/6 151/1/6
f 151/1/6 150/1/6 152/1/6
f 153/1/6 154/1/6 155/1/6
f 155/1/6 154/1/6 156/1/6
f 157/1/6 158/1/6 159/1/6
f 159/1/6 158/1/6 160/1/6
