# MagicaVoxel @ Ephtracy

# group
o 

# material
mtllib Requin_v3-2.mtl
usemtl palette

# normals
vn 1 0 0
vn -1 0 0
vn 0 0 1
vn 0 0 -1
vn 0 -1 0
vn 0 1 0

# texcoords
vt 0.126953 0.5

# verts
v 2.4 1.1 1.8
v 2.4 1.1 0.8
v 2.4 1.3 1.8
v 2.4 1.3 0.8
v 2.2 1.1 2.2
v 2.2 1.1 1.8
v 2.2 1.3 2.2
v 2.2 1.3 1.8
v 2 1.1 2.4
v 2 1.1 2.2
v 2 1.3 2.4
v 2 1.3 2.2
v 1.8 1.1 2.6
v 1.8 1.1 2.4
v 1.8 1.3 2.6
v 1.8 1.3 2.4
v 1.4 1.1 2.8
v 1.4 1.1 2.6
v 1.4 1.3 2.8
v 1.4 1.3 2.6
v 2.2 1.1 1
v 2.2 1.1 0.8
v 2.2 1.3 1
v 2.2 1.3 0.8
v 2 1.1 1.2
v 2 1.1 1
v 2 1.3 1.2
v 2 1.3 1
v 1.8 1.1 1.4
v 1.8 1.1 1.2
v 1.8 1.3 1.4
v 1.8 1.3 1.2
v 1.6 1.1 1.6
v 1.6 1.1 1.4
v 1.6 1.3 1.6
v 1.6 1.3 1.4
v 1.2 1.1 1.8
v 1.2 1.1 1.6
v 1.2 1.3 1.8
v 1.2 1.3 1.6
v 1 1.1 2.8
v 1 1.1 1.8
v 1 1.3 2.8
v 1 1.3 1.8
v 1.4 1.1 2.8
v 1.4 1.3 2.8
v 1 1.1 2.8
v 1 1.3 2.8
v 1.8 1.1 2.6
v 1.8 1.3 2.6
v 1.4 1.1 2.6
v 1.4 1.3 2.6
v 2 1.1 2.4
v 2 1.3 2.4
v 1.8 1.1 2.4
v 1.8 1.3 2.4
v 2.2 1.1 2.2
v 2.2 1.3 2.2
v 2 1.1 2.2
v 2 1.3 2.2
v 2.4 1.1 1.8
v 2.4 1.3 1.8
v 2.2 1.1 1.8
v 2.2 1.3 1.8
v 1.2 1.1 1.8
v 1.2 1.3 1.8
v 1 1.1 1.8
v 1 1.3 1.8
v 1.6 1.1 1.6
v 1.6 1.3 1.6
v 1.2 1.1 1.6
v 1.2 1.3 1.6
v 1.8 1.1 1.4
v 1.8 1.3 1.4
v 1.6 1.1 1.4
v 1.6 1.3 1.4
v 2 1.1 1.2
v 2 1.3 1.2
v 1.8 1.1 1.2
v 1.8 1.3 1.2
v 2.2 1.1 1
v 2.2 1.3 1
v 2 1.1 1
v 2 1.3 1
v 2.4 1.1 0.8
v 2.4 1.3 0.8
v 2.2 1.1 0.8
v 2.2 1.3 0.8
v 1.4 1.1 2.8
v 1 1.1 2.8
v 1.8 1.1 2.6
v 1.4 1.1 2.6
v 2 1.1 2.4
v 1.8 1.1 2.4
v 2.2 1.1 2.2
v 2 1.1 2.2
v 2.4 1.1 1.8
v 2.2 1.1 1.8
v 1.2 1.1 1.8
v 1 1.1 1.8
v 1.6 1.1 1.6
v 1.2 1.1 1.6
v 1.8 1.1 1.4
v 1.6 1.1 1.4
v 2 1.1 1.2
v 1.8 1.1 1.2
v 2.2 1.1 1
v 2 1.1 1
v 2.4 1.1 0.8
v 2.2 1.1 0.8
v 1.4 1.3 2.8
v 1 1.3 2.8
v 1.8 1.3 2.6
v 1.4 1.3 2.6
v 2 1.3 2.4
v 1.8 1.3 2.4
v 2.2 1.3 2.2
v 2 1.3 2.2
v 2.4 1.3 1.8
v 2.2 1.3 1.8
v 1.2 1.3 1.8
v 1 1.3 1.8
v 1.6 1.3 1.6
v 1.2 1.3 1.6
v 1.8 1.3 1.4
v 1.6 1.3 1.4
v 2 1.3 1.2
v 1.8 1.3 1.2
v 2.2 1.3 1
v 2 1.3 1
v 2.4 1.3 0.8
v 2.2 1.3 0.8

# faces
f 1/1/1 2/1/1 3/1/1
f 3/1/1 2/1/1 4/1/1
f 5/1/1 6/1/1 7/1/1
f 7/1/1 6/1/1 8/1/1
f 9/1/1 10/1/1 11/1/1
f 11/1/1 10/1/1 12/1/1
f 13/1/1 14/1/1 15/1/1
f 15/1/1 14/1/1 16/1/1
f 17/1/1 18/1/1 19/1/1
f 19/1/1 18/1/1 20/1/1
f 23/1/2 22/1/2 21/1/2
f 24/1/2 22/1/2 23/1/2
f 27/1/2 26/1/2 25/1/2
f 28/1/2 26/1/2 27/1/2
f 31/1/2 30/1/2 29/1/2
f 32/1/2 30/1/2 31/1/2
f 35/1/2 34/1/2 33/1/2
f 36/1/2 34/1/2 35/1/2
f 39/1/2 38/1/2 37/1/2
f 40/1/2 38/1/2 39/1/2
f 43/1/2 42/1/2 41/1/2
f 44/1/2 42/1/2 43/1/2
f 45/1/3 46/1/3 47/1/3
f 47/1/3 46/1/3 48/1/3
f 49/1/3 50/1/3 51/1/3
f 51/1/3 50/1/3 52/1/3
f 53/1/3 54/1/3 55/1/3
f 55/1/3 54/1/3 56/1/3
f 57/1/3 58/1/3 59/1/3
f 59/1/3 58/1/3 60/1/3
f 61/1/3 62/1/3 63/1/3
f 63/1/3 62/1/3 64/1/3
f 67/1/4 66/1/4 65/1/4
f 68/1/4 66/1/4 67/1/4
f 71/1/4 70/1/4 69/1/4
f 72/1/4 70/1/4 71/1/4
f 75/1/4 74/1/4 73/1/4
f 76/1/4 74/1/4 75/1/4
f 79/1/4 78/1/4 77/1/4
f 80/1/4 78/1/4 79/1/4
f 83/1/4 82/1/4 81/1/4
f 84/1/4 82/1/4 83/1/4
f 87/1/4 86/1/4 85/1/4
f 88/1/4 86/1/4 87/1/4
f 89/1/5 90/1/5 92/1/5
f 91/1/5 92/1/5 94/1/5
f 93/1/5 94/1/5 96/1/5
f 95/1/5 96/1/5 98/1/5
f 92/1/5 90/1/5 99/1/5
f 94/1/5 92/1/5 99/1/5
f 98/1/5 96/1/5 99/1/5
f 96/1/5 94/1/5 99/1/5
f 99/1/5 90/1/5 100/1/5
f 97/1/5 98/1/5 101/1/5
f 98/1/5 99/1/5 101/1/5
f 101/1/5 99/1/5 102/1/5
f 97/1/5 101/1/5 103/1/5
f 103/1/5 101/1/5 104/1/5
f 97/1/5 103/1/5 105/1/5
f 105/1/5 103/1/5 106/1/5
f 97/1/5 105/1/5 107/1/5
f 107/1/5 105/1/5 108/1/5
f 97/1/5 107/1/5 109/1/5
f 109/1/5 107/1/5 110/1/5
f 114/1/6 112/1/6 111/1/6
f 116/1/6 114/1/6 113/1/6
f 118/1/6 116/1/6 115/1/6
f 120/1/6 118/1/6 117/1/6
f 121/1/6 112/1/6 114/1/6
f 121/1/6 114/1/6 116/1/6
f 121/1/6 118/1/6 120/1/6
f 121/1/6 116/1/6 118/1/6
f 122/1/6 112/1/6 121/1/6
f 123/1/6 120/1/6 119/1/6
f 123/1/6 121/1/6 120/1/6
f 124/1/6 121/1/6 123/1/6
f 125/1/6 123/1/6 119/1/6
f 126/1/6 123/1/6 125/1/6
f 127/1/6 125/1/6 119/1/6
f 128/1/6 125/1/6 127/1/6
f 129/1/6 127/1/6 119/1/6
f 130/1/6 127/1/6 129/1/6
f 131/1/6 129/1/6 119/1/6
f 132/1/6 129/1/6 131/1/6
