# MagicaVoxel @ Ephtracy

# group
o 

# material
mtllib Requin_v3-5.mtl
usemtl palette

# normals
vn -1 0 0
vn 1 0 0
vn 0 0 1
vn 0 0 -1
vn 0 -1 0
vn 0 1 0

# texcoords
vt 0.126953 0.5
vt 0.130859 0.5
vt 0.134766 0.5
vt 0.138672 0.5
vt 0.142578 0.5

# verts
v -0.6 1.7 6
v -0.6 1.7 5.4
v -0.6 1.7 4
v -0.6 1.9 5.8
v -0.6 1.9 5.4
v -0.6 2 4.8
v -0.6 2 4.6
v -0.6 2.1 6
v -0.6 2.1 5.8
v -0.6 2.2 4.7
v -0.6 2.2 4.6
v -0.6 2.3 4.8
v -0.6 2.3 4.7
v -0.6 2.3 4.6
v -0.6 2.7 6
v -0.6 2.7 4
v -0.5 1.6 5.8
v -0.5 1.6 5.7
v -0.5 1.6 5.4
v -0.5 1.6 5.3
v -0.5 1.6 5
v -0.5 1.6 4.9
v -0.5 1.6 4.6
v -0.5 1.6 4.5
v -0.5 1.6 4.2
v -0.5 1.6 4.1
v -0.5 1.7 5.8
v -0.5 1.7 5.7
v -0.5 1.7 5.4
v -0.5 1.7 5.3
v -0.5 1.7 5
v -0.5 1.7 4.9
v -0.5 1.7 4.6
v -0.5 1.7 4.5
v -0.5 1.7 4.2
v -0.5 1.7 4.1
v -0.2 1.6 5.9
v -0.2 1.6 5.8
v -0.2 1.7 5.9
v -0.2 1.7 5.8
v 0.1 1.6 5.9
v 0.1 1.6 5.8
v 0.1 1.7 5.9
v 0.1 1.7 5.8
v 0.4 1.6 5.8
v 0.4 1.6 5.7
v 0.4 1.6 5.4
v 0.4 1.6 5.3
v 0.4 1.6 5
v 0.4 1.6 4.9
v 0.4 1.6 4.6
v 0.4 1.6 4.5
v 0.4 1.6 4.2
v 0.4 1.6 4.1
v 0.4 1.7 5.8
v 0.4 1.7 5.7
v 0.4 1.7 5.4
v 0.4 1.7 5.3
v 0.4 1.7 5
v 0.4 1.7 4.9
v 0.4 1.7 4.6
v 0.4 1.7 4.5
v 0.4 1.7 4.2
v 0.4 1.7 4.1
v -0.4 1.6 5.8
v -0.4 1.6 5.7
v -0.4 1.6 5.4
v -0.4 1.6 5.3
v -0.4 1.6 5
v -0.4 1.6 4.9
v -0.4 1.6 4.6
v -0.4 1.6 4.5
v -0.4 1.6 4.2
v -0.4 1.6 4.1
v -0.4 1.7 5.8
v -0.4 1.7 5.7
v -0.4 1.7 5.4
v -0.4 1.7 5.3
v -0.4 1.7 5
v -0.4 1.7 4.9
v -0.4 1.7 4.6
v -0.4 1.7 4.5
v -0.4 1.7 4.2
v -0.4 1.7 4.1
v -0.1 1.6 5.9
v -0.1 1.6 5.8
v -0.1 1.7 5.9
v -0.1 1.7 5.8
v 0.2 1.6 5.9
v 0.2 1.6 5.8
v 0.2 1.7 5.9
v 0.2 1.7 5.8
v 0.5 1.6 5.8
v 0.5 1.6 5.7
v 0.5 1.6 5.4
v 0.5 1.6 5.3
v 0.5 1.6 5
v 0.5 1.6 4.9
v 0.5 1.6 4.6
v 0.5 1.6 4.5
v 0.5 1.6 4.2
v 0.5 1.6 4.1
v 0.5 1.7 5.8
v 0.5 1.7 5.7
v 0.5 1.7 5.4
v 0.5 1.7 5.3
v 0.5 1.7 5
v 0.5 1.7 4.9
v 0.5 1.7 4.6
v 0.5 1.7 4.5
v 0.5 1.7 4.2
v 0.5 1.7 4.1
v 0.6 1.7 6
v 0.6 1.7 5.4
v 0.6 1.7 4
v 0.6 1.9 5.8
v 0.6 1.9 5.4
v 0.6 2 4.8
v 0.6 2 4.6
v 0.6 2.1 6
v 0.6 2.1 5.8
v 0.6 2.2 4.7
v 0.6 2.2 4.6
v 0.6 2.3 4.8
v 0.6 2.3 4.7
v 0.6 2.3 4.6
v 0.6 2.7 6
v 0.6 2.7 4
v -0.6 1.7 6
v -0.6 2.1 6
v -0.6 2.7 6
v -0.2 2.1 6
v -0.2 2.3 6
v 0.2 2.1 6
v 0.2 2.3 6
v 0.6 1.7 6
v 0.6 2.1 6
v 0.6 2.7 6
v -0.2 1.6 5.9
v -0.2 1.7 5.9
v -0.1 1.6 5.9
v -0.1 1.7 5.9
v 0.1 1.6 5.9
v 0.1 1.7 5.9
v 0.2 1.6 5.9
v 0.2 1.7 5.9
v -0.5 1.6 5.8
v -0.5 1.7 5.8
v -0.4 1.6 5.8
v -0.4 1.7 5.8
v 0.4 1.6 5.8
v 0.4 1.7 5.8
v 0.5 1.6 5.8
v 0.5 1.7 5.8
v -0.5 1.6 5.4
v -0.5 1.7 5.4
v -0.4 1.6 5.4
v -0.4 1.7 5.4
v 0.4 1.6 5.4
v 0.4 1.7 5.4
v 0.5 1.6 5.4
v 0.5 1.7 5.4
v -0.5 1.6 5
v -0.5 1.7 5
v -0.4 1.6 5
v -0.4 1.7 5
v 0.4 1.6 5
v 0.4 1.7 5
v 0.5 1.6 5
v 0.5 1.7 5
v -0.5 1.6 4.6
v -0.5 1.7 4.6
v -0.4 1.6 4.6
v -0.4 1.7 4.6
v 0.4 1.6 4.6
v 0.4 1.7 4.6
v 0.5 1.6 4.6
v 0.5 1.7 4.6
v -0.5 1.6 4.2
v -0.5 1.7 4.2
v -0.4 1.6 4.2
v -0.4 1.7 4.2
v 0.4 1.6 4.2
v 0.4 1.7 4.2
v 0.5 1.6 4.2
v 0.5 1.7 4.2
v -0.2 1.6 5.8
v -0.2 1.7 5.8
v -0.1 1.6 5.8
v -0.1 1.7 5.8
v 0.1 1.6 5.8
v 0.1 1.7 5.8
v 0.2 1.6 5.8
v 0.2 1.7 5.8
v -0.5 1.6 5.7
v -0.5 1.7 5.7
v -0.4 1.6 5.7
v -0.4 1.7 5.7
v 0.4 1.6 5.7
v 0.4 1.7 5.7
v 0.5 1.6 5.7
v 0.5 1.7 5.7
v -0.5 1.6 5.3
v -0.5 1.7 5.3
v -0.4 1.6 5.3
v -0.4 1.7 5.3
v 0.4 1.6 5.3
v 0.4 1.7 5.3
v 0.5 1.6 5.3
v 0.5 1.7 5.3
v -0.5 1.6 4.9
v -0.5 1.7 4.9
v -0.4 1.6 4.9
v -0.4 1.7 4.9
v 0.4 1.6 4.9
v 0.4 1.7 4.9
v 0.5 1.6 4.9
v 0.5 1.7 4.9
v -0.5 1.6 4.5
v -0.5 1.7 4.5
v -0.4 1.6 4.5
v -0.4 1.7 4.5
v 0.4 1.6 4.5
v 0.4 1.7 4.5
v 0.5 1.6 4.5
v 0.5 1.7 4.5
v -0.5 1.6 4.1
v -0.5 1.7 4.1
v -0.4 1.6 4.1
v -0.4 1.7 4.1
v 0.4 1.6 4.1
v 0.4 1.7 4.1
v 0.5 1.6 4.1
v 0.5 1.7 4.1
v -0.6 1.7 4
v -0.6 2.7 4
v -0.4 1.7 4
v -0.4 1.9 4
v 0.4 1.7 4
v 0.4 1.9 4
v 0.6 1.7 4
v 0.6 2.7 4
v -0.2 1.6 5.9
v -0.1 1.6 5.9
v 0.1 1.6 5.9
v 0.2 1.6 5.9
v -0.5 1.6 5.8
v -0.4 1.6 5.8
v -0.2 1.6 5.8
v -0.1 1.6 5.8
v 0.1 1.6 5.8
v 0.2 1.6 5.8
v 0.4 1.6 5.8
v 0.5 1.6 5.8
v -0.5 1.6 5.7
v -0.4 1.6 5.7
v 0.4 1.6 5.7
v 0.5 1.6 5.7
v -0.5 1.6 5.4
v -0.4 1.6 5.4
v 0.4 1.6 5.4
v 0.5 1.6 5.4
v -0.5 1.6 5.3
v -0.4 1.6 5.3
v 0.4 1.6 5.3
v 0.5 1.6 5.3
v -0.5 1.6 5
v -0.4 1.6 5
v 0.4 1.6 5
v 0.5 1.6 5
v -0.5 1.6 4.9
v -0.4 1.6 4.9
v 0.4 1.6 4.9
v 0.5 1.6 4.9
v -0.5 1.6 4.6
v -0.4 1.6 4.6
v 0.4 1.6 4.6
v 0.5 1.6 4.6
v -0.5 1.6 4.5
v -0.4 1.6 4.5
v 0.4 1.6 4.5
v 0.5 1.6 4.5
v -0.5 1.6 4.2
v -0.4 1.6 4.2
v 0.4 1.6 4.2
v 0.5 1.6 4.2
v -0.5 1.6 4.1
v -0.4 1.6 4.1
v 0.4 1.6 4.1
v 0.5 1.6 4.1
v -0.6 1.7 6
v 0.6 1.7 6
v -0.2 1.7 5.9
v -0.1 1.7 5.9
v 0.1 1.7 5.9
v 0.2 1.7 5.9
v -0.5 1.7 5.8
v -0.4 1.7 5.8
v -0.2 1.7 5.8
v -0.1 1.7 5.8
v 0.1 1.7 5.8
v 0.2 1.7 5.8
v 0.4 1.7 5.8
v 0.5 1.7 5.8
v -0.5 1.7 5.7
v -0.4 1.7 5.7
v 0.4 1.7 5.7
v 0.5 1.7 5.7
v -0.6 1.7 5.4
v -0.5 1.7 5.4
v -0.4 1.7 5.4
v 0.4 1.7 5.4
v 0.5 1.7 5.4
v 0.6 1.7 5.4
v -0.5 1.7 5.3
v -0.4 1.7 5.3
v 0.4 1.7 5.3
v 0.5 1.7 5.3
v -0.5 1.7 5
v -0.4 1.7 5
v 0.4 1.7 5
v 0.5 1.7 5
v -0.5 1.7 4.9
v -0.4 1.7 4.9
v 0.4 1.7 4.9
v 0.5 1.7 4.9
v -0.5 1.7 4.6
v -0.4 1.7 4.6
v 0.4 1.7 4.6
v 0.5 1.7 4.6
v -0.5 1.7 4.5
v -0.4 1.7 4.5
v 0.4 1.7 4.5
v 0.5 1.7 4.5
v -0.5 1.7 4.2
v -0.4 1.7 4.2
v 0.4 1.7 4.2
v 0.5 1.7 4.2
v -0.5 1.7 4.1
v -0.4 1.7 4.1
v 0.4 1.7 4.1
v 0.5 1.7 4.1
v -0.6 1.7 4
v -0.4 1.7 4
v 0.4 1.7 4
v 0.6 1.7 4
v -0.6 2.7 6
v 0.6 2.7 6
v -0.6 2.7 4
v 0.6 2.7 4

# faces
f 4/2/1 2/2/1 1/2/1
f 5/1/1 3/1/1 2/1/1
f 5/2/1 2/2/1 4/2/1
f 6/1/1 5/1/1 4/1/1
f 6/1/1 3/1/1 5/1/1
f 7/1/1 3/1/1 6/1/1
f 8/2/1 4/2/1 1/2/1
f 9/1/1 6/1/1 4/1/1
f 9/2/1 4/2/1 8/2/1
f 10/4/1 7/4/1 6/4/1
f 11/1/1 3/1/1 7/1/1
f 11/4/1 7/4/1 10/4/1
f 12/4/1 10/4/1 6/4/1
f 12/1/1 6/1/1 9/1/1
f 12/1/1 9/1/1 8/1/1
f 13/5/1 11/5/1 10/5/1
f 13/4/1 10/4/1 12/4/1
f 14/1/1 3/1/1 11/1/1
f 14/5/1 11/5/1 13/5/1
f 15/1/1 13/1/1 12/1/1
f 15/1/1 12/1/1 8/1/1
f 15/1/1 14/1/1 13/1/1
f 16/1/1 3/1/1 14/1/1
f 16/1/1 14/1/1 15/1/1
f 27/5/1 18/5/1 17/5/1
f 28/5/1 18/5/1 27/5/1
f 29/5/1 20/5/1 19/5/1
f 30/5/1 20/5/1 29/5/1
f 31/5/1 22/5/1 21/5/1
f 32/5/1 22/5/1 31/5/1
f 33/5/1 24/5/1 23/5/1
f 34/5/1 24/5/1 33/5/1
f 35/5/1 26/5/1 25/5/1
f 36/5/1 26/5/1 35/5/1
f 39/5/1 38/5/1 37/5/1
f 40/5/1 38/5/1 39/5/1
f 43/5/1 42/5/1 41/5/1
f 44/5/1 42/5/1 43/5/1
f 55/5/1 46/5/1 45/5/1
f 56/5/1 46/5/1 55/5/1
f 57/5/1 48/5/1 47/5/1
f 58/5/1 48/5/1 57/5/1
f 59/5/1 50/5/1 49/5/1
f 60/5/1 50/5/1 59/5/1
f 61/5/1 52/5/1 51/5/1
f 62/5/1 52/5/1 61/5/1
f 63/5/1 54/5/1 53/5/1
f 64/5/1 54/5/1 63/5/1
f 65/5/2 66/5/2 75/5/2
f 75/5/2 66/5/2 76/5/2
f 67/5/2 68/5/2 77/5/2
f 77/5/2 68/5/2 78/5/2
f 69/5/2 70/5/2 79/5/2
f 79/5/2 70/5/2 80/5/2
f 71/5/2 72/5/2 81/5/2
f 81/5/2 72/5/2 82/5/2
f 73/5/2 74/5/2 83/5/2
f 83/5/2 74/5/2 84/5/2
f 85/5/2 86/5/2 87/5/2
f 87/5/2 86/5/2 88/5/2
f 89/5/2 90/5/2 91/5/2
f 91/5/2 90/5/2 92/5/2
f 93/5/2 94/5/2 103/5/2
f 103/5/2 94/5/2 104/5/2
f 95/5/2 96/5/2 105/5/2
f 105/5/2 96/5/2 106/5/2
f 97/5/2 98/5/2 107/5/2
f 107/5/2 98/5/2 108/5/2
f 99/5/2 100/5/2 109/5/2
f 109/5/2 100/5/2 110/5/2
f 101/5/2 102/5/2 111/5/2
f 111/5/2 102/5/2 112/5/2
f 113/2/2 114/2/2 116/2/2
f 114/1/2 115/1/2 117/1/2
f 116/2/2 114/2/2 117/2/2
f 116/1/2 117/1/2 118/1/2
f 117/1/2 115/1/2 118/1/2
f 118/1/2 115/1/2 119/1/2
f 113/2/2 116/2/2 120/2/2
f 116/1/2 118/1/2 121/1/2
f 120/2/2 116/2/2 121/2/2
f 118/4/2 119/4/2 122/4/2
f 119/1/2 115/1/2 123/1/2
f 122/4/2 119/4/2 123/4/2
f 118/4/2 122/4/2 124/4/2
f 121/1/2 118/1/2 124/1/2
f 120/1/2 121/1/2 124/1/2
f 122/5/2 123/5/2 125/5/2
f 124/4/2 122/4/2 125/4/2
f 123/1/2 115/1/2 126/1/2
f 125/5/2 123/5/2 126/5/2
f 124/1/2 125/1/2 127/1/2
f 120/1/2 124/1/2 127/1/2
f 125/1/2 126/1/2 127/1/2
f 126/1/2 115/1/2 128/1/2
f 127/1/2 126/1/2 128/1/2
f 132/2/3 130/2/3 129/2/3
f 132/1/3 131/1/3 130/1/3
f 133/1/3 131/1/3 132/1/3
f 134/2/3 132/2/3 129/2/3
f 134/2/3 133/2/3 132/2/3
f 135/1/3 131/1/3 133/1/3
f 135/2/3 133/2/3 134/2/3
f 136/2/3 134/2/3 129/2/3
f 137/1/3 135/1/3 134/1/3
f 137/2/3 134/2/3 136/2/3
f 138/1/3 131/1/3 135/1/3
f 138/1/3 135/1/3 137/1/3
f 141/5/3 140/5/3 139/5/3
f 142/5/3 140/5/3 141/5/3
f 145/5/3 144/5/3 143/5/3
f 146/5/3 144/5/3 145/5/3
f 149/5/3 148/5/3 147/5/3
f 150/5/3 148/5/3 149/5/3
f 153/5/3 152/5/3 151/5/3
f 154/5/3 152/5/3 153/5/3
f 157/5/3 156/5/3 155/5/3
f 158/5/3 156/5/3 157/5/3
f 161/5/3 160/5/3 159/5/3
f 162/5/3 160/5/3 161/5/3
f 165/5/3 164/5/3 163/5/3
f 166/5/3 164/5/3 165/5/3
f 169/5/3 168/5/3 167/5/3
f 170/5/3 168/5/3 169/5/3
f 173/5/3 172/5/3 171/5/3
f 174/5/3 172/5/3 173/5/3
f 177/5/3 176/5/3 175/5/3
f 178/5/3 176/5/3 177/5/3
f 181/5/3 180/5/3 179/5/3
f 182/5/3 180/5/3 181/5/3
f 185/5/3 184/5/3 183/5/3
f 186/5/3 184/5/3 185/5/3
f 187/5/4 188/5/4 189/5/4
f 189/5/4 188/5/4 190/5/4
f 191/5/4 192/5/4 193/5/4
f 193/5/4 192/5/4 194/5/4
f 195/5/4 196/5/4 197/5/4
f 197/5/4 196/5/4 198/5/4
f 199/5/4 200/5/4 201/5/4
f 201/5/4 200/5/4 202/5/4
f 203/5/4 204/5/4 205/5/4
f 205/5/4 204/5/4 206/5/4
f 207/5/4 208/5/4 209/5/4
f 209/5/4 208/5/4 210/5/4
f 211/5/4 212/5/4 213/5/4
f 213/5/4 212/5/4 214/5/4
f 215/5/4 216/5/4 217/5/4
f 217/5/4 216/5/4 218/5/4
f 219/5/4 220/5/4 221/5/4
f 221/5/4 220/5/4 222/5/4
f 223/5/4 224/5/4 225/5/4
f 225/5/4 224/5/4 226/5/4
f 227/5/4 228/5/4 229/5/4
f 229/5/4 228/5/4 230/5/4
f 231/5/4 232/5/4 233/5/4
f 233/5/4 232/5/4 234/5/4
f 235/1/4 236/1/4 237/1/4
f 237/1/4 236/1/4 238/1/4
f 237/3/4 238/3/4 239/3/4
f 238/1/4 236/1/4 240/1/4
f 239/3/4 238/3/4 240/3/4
f 239/1/4 240/1/4 241/1/4
f 240/1/4 236/1/4 242/1/4
f 241/1/4 240/1/4 242/1/4
f 249/5/5 244/5/5 243/5/5
f 250/5/5 244/5/5 249/5/5
f 251/5/5 246/5/5 245/5/5
f 252/5/5 246/5/5 251/5/5
f 255/5/5 248/5/5 247/5/5
f 256/5/5 248/5/5 255/5/5
f 257/5/5 254/5/5 253/5/5
f 258/5/5 254/5/5 257/5/5
f 263/5/5 260/5/5 259/5/5
f 264/5/5 260/5/5 263/5/5
f 265/5/5 262/5/5 261/5/5
f 266/5/5 262/5/5 265/5/5
f 271/5/5 268/5/5 267/5/5
f 272/5/5 268/5/5 271/5/5
f 273/5/5 270/5/5 269/5/5
f 274/5/5 270/5/5 273/5/5
f 279/5/5 276/5/5 275/5/5
f 280/5/5 276/5/5 279/5/5
f 281/5/5 278/5/5 277/5/5
f 282/5/5 278/5/5 281/5/5
f 287/5/5 284/5/5 283/5/5
f 288/5/5 284/5/5 287/5/5
f 289/5/5 286/5/5 285/5/5
f 290/5/5 286/5/5 289/5/5
f 293/2/5 292/2/5 291/2/5
f 294/2/5 292/2/5 293/2/5
f 295/2/5 292/2/5 294/2/5
f 296/2/5 292/2/5 295/2/5
f 297/2/5 293/2/5 291/2/5
f 298/2/5 293/2/5 297/2/5
f 299/2/5 293/2/5 298/2/5
f 300/2/5 295/2/5 294/2/5
f 301/2/5 295/2/5 300/2/5
f 302/2/5 292/2/5 296/2/5
f 303/2/5 292/2/5 302/2/5
f 304/2/5 292/2/5 303/2/5
f 305/2/5 297/2/5 291/2/5
f 306/3/5 301/3/5 300/3/5
f 306/3/5 299/3/5 298/3/5
f 306/3/5 302/3/5 301/3/5
f 306/3/5 303/3/5 302/3/5
f 306/3/5 300/3/5 299/3/5
f 307/3/5 303/3/5 306/3/5
f 308/2/5 292/2/5 304/2/5
f 309/2/5 305/2/5 291/2/5
f 309/2/5 306/2/5 305/2/5
f 310/2/5 306/2/5 309/2/5
f 311/3/5 307/3/5 306/3/5
f 311/2/5 306/2/5 310/2/5
f 312/2/5 308/2/5 307/2/5
f 312/3/5 307/3/5 311/3/5
f 313/2/5 292/2/5 308/2/5
f 313/2/5 308/2/5 312/2/5
f 314/2/5 292/2/5 313/2/5
f 315/1/5 310/1/5 309/1/5
f 316/3/5 312/3/5 311/3/5
f 317/3/5 312/3/5 316/3/5
f 318/1/5 314/1/5 313/1/5
f 319/1/5 315/1/5 309/1/5
f 319/1/5 316/1/5 315/1/5
f 320/3/5 317/3/5 316/3/5
f 320/1/5 316/1/5 319/1/5
f 321/1/5 318/1/5 317/1/5
f 321/3/5 317/3/5 320/3/5
f 322/1/5 314/1/5 318/1/5
f 322/1/5 318/1/5 321/1/5
f 323/1/5 319/1/5 309/1/5
f 324/3/5 321/3/5 320/3/5
f 325/3/5 321/3/5 324/3/5
f 326/1/5 314/1/5 322/1/5
f 327/1/5 323/1/5 309/1/5
f 327/1/5 324/1/5 323/1/5
f 328/3/5 325/3/5 324/3/5
f 328/1/5 324/1/5 327/1/5
f 329/1/5 326/1/5 325/1/5
f 329/3/5 325/3/5 328/3/5
f 330/1/5 314/1/5 326/1/5
f 330/1/5 326/1/5 329/1/5
f 331/1/5 327/1/5 309/1/5
f 332/3/5 329/3/5 328/3/5
f 333/3/5 329/3/5 332/3/5
f 334/1/5 314/1/5 330/1/5
f 335/1/5 331/1/5 309/1/5
f 335/1/5 332/1/5 331/1/5
f 336/3/5 333/3/5 332/3/5
f 336/1/5 332/1/5 335/1/5
f 337/1/5 334/1/5 333/1/5
f 337/3/5 333/3/5 336/3/5
f 338/1/5 314/1/5 334/1/5
f 338/1/5 334/1/5 337/1/5
f 339/1/5 335/1/5 309/1/5
f 340/3/5 337/3/5 336/3/5
f 341/3/5 337/3/5 340/3/5
f 342/1/5 314/1/5 338/1/5
f 343/1/5 339/1/5 309/1/5
f 343/1/5 340/1/5 339/1/5
f 344/3/5 341/3/5 340/3/5
f 344/1/5 340/1/5 343/1/5
f 345/1/5 342/1/5 341/1/5
f 345/3/5 341/3/5 344/3/5
f 346/1/5 314/1/5 342/1/5
f 346/1/5 342/1/5 345/1/5
f 347/1/6 348/1/6 349/1/6
f 349/1/6 348/1/6 350/1/6
