# MagicaVoxel @ Ephtracy

# group
o 

# material
mtllib Requin_v3-4.mtl
usemtl palette

# normals
vn -1 0 0
vn 1 0 0
vn 0 0 1
vn 0 0 -1
vn 0 -1 0
vn 0 1 0

# texcoords
vt 0.130859 0.5
vt 0.134766 0.5
vt 0.142578 0.5

# verts
v -0.6 0.9 6
v -0.6 0.9 4
v -0.6 1.5 6
v -0.6 1.5 4
v -0.5 1.5 5.6
v -0.5 1.5 5.5
v -0.5 1.5 5.2
v -0.5 1.5 5.1
v -0.5 1.5 4.8
v -0.5 1.5 4.7
v -0.5 1.5 4.4
v -0.5 1.5 4.3
v -0.5 1.6 5.6
v -0.5 1.6 5.5
v -0.5 1.6 5.2
v -0.5 1.6 5.1
v -0.5 1.6 4.8
v -0.5 1.6 4.7
v -0.5 1.6 4.4
v -0.5 1.6 4.3
v -0.4 1.5 5.9
v -0.4 1.5 5.8
v -0.4 1.6 5.9
v -0.4 1.6 5.8
v 0.3 1.5 5.9
v 0.3 1.5 5.8
v 0.3 1.6 5.9
v 0.3 1.6 5.8
v 0.4 1.5 5.6
v 0.4 1.5 5.5
v 0.4 1.5 5.2
v 0.4 1.5 5.1
v 0.4 1.5 4.8
v 0.4 1.5 4.7
v 0.4 1.5 4.4
v 0.4 1.5 4.3
v 0.4 1.6 5.6
v 0.4 1.6 5.5
v 0.4 1.6 5.2
v 0.4 1.6 5.1
v 0.4 1.6 4.8
v 0.4 1.6 4.7
v 0.4 1.6 4.4
v 0.4 1.6 4.3
v -0.4 1.5 5.6
v -0.4 1.5 5.5
v -0.4 1.5 5.2
v -0.4 1.5 5.1
v -0.4 1.5 4.8
v -0.4 1.5 4.7
v -0.4 1.5 4.4
v -0.4 1.5 4.3
v -0.4 1.6 5.6
v -0.4 1.6 5.5
v -0.4 1.6 5.2
v -0.4 1.6 5.1
v -0.4 1.6 4.8
v -0.4 1.6 4.7
v -0.4 1.6 4.4
v -0.4 1.6 4.3
v -0.3 1.5 5.9
v -0.3 1.5 5.8
v -0.3 1.6 5.9
v -0.3 1.6 5.8
v 0.4 1.5 5.9
v 0.4 1.5 5.8
v 0.4 1.6 5.9
v 0.4 1.6 5.8
v 0.5 1.5 5.6
v 0.5 1.5 5.5
v 0.5 1.5 5.2
v 0.5 1.5 5.1
v 0.5 1.5 4.8
v 0.5 1.5 4.7
v 0.5 1.5 4.4
v 0.5 1.5 4.3
v 0.5 1.6 5.6
v 0.5 1.6 5.5
v 0.5 1.6 5.2
v 0.5 1.6 5.1
v 0.5 1.6 4.8
v 0.5 1.6 4.7
v 0.5 1.6 4.4
v 0.5 1.6 4.3
v 0.6 0.9 6
v 0.6 0.9 4
v 0.6 1.5 6
v 0.6 1.5 4
v -0.6 0.9 6
v -0.6 1.5 6
v 0.6 0.9 6
v 0.6 1.5 6
v -0.4 1.5 5.9
v -0.4 1.6 5.9
v -0.3 1.5 5.9
v -0.3 1.6 5.9
v 0.3 1.5 5.9
v 0.3 1.6 5.9
v 0.4 1.5 5.9
v 0.4 1.6 5.9
v -0.5 1.5 5.6
v -0.5 1.6 5.6
v -0.4 1.5 5.6
v -0.4 1.6 5.6
v 0.4 1.5 5.6
v 0.4 1.6 5.6
v 0.5 1.5 5.6
v 0.5 1.6 5.6
v -0.5 1.5 5.2
v -0.5 1.6 5.2
v -0.4 1.5 5.2
v -0.4 1.6 5.2
v 0.4 1.5 5.2
v 0.4 1.6 5.2
v 0.5 1.5 5.2
v 0.5 1.6 5.2
v -0.5 1.5 4.8
v -0.5 1.6 4.8
v -0.4 1.5 4.8
v -0.4 1.6 4.8
v 0.4 1.5 4.8
v 0.4 1.6 4.8
v 0.5 1.5 4.8
v 0.5 1.6 4.8
v -0.5 1.5 4.4
v -0.5 1.6 4.4
v -0.4 1.5 4.4
v -0.4 1.6 4.4
v 0.4 1.5 4.4
v 0.4 1.6 4.4
v 0.5 1.5 4.4
v 0.5 1.6 4.4
v -0.4 1.5 5.8
v -0.4 1.6 5.8
v -0.3 1.5 5.8
v -0.3 1.6 5.8
v 0.3 1.5 5.8
v 0.3 1.6 5.8
v 0.4 1.5 5.8
v 0.4 1.6 5.8
v -0.5 1.5 5.5
v -0.5 1.6 5.5
v -0.4 1.5 5.5
v -0.4 1.6 5.5
v 0.4 1.5 5.5
v 0.4 1.6 5.5
v 0.5 1.5 5.5
v 0.5 1.6 5.5
v -0.5 1.5 5.1
v -0.5 1.6 5.1
v -0.4 1.5 5.1
v -0.4 1.6 5.1
v 0.4 1.5 5.1
v 0.4 1.6 5.1
v 0.5 1.5 5.1
v 0.5 1.6 5.1
v -0.5 1.5 4.7
v -0.5 1.6 4.7
v -0.4 1.5 4.7
v -0.4 1.6 4.7
v 0.4 1.5 4.7
v 0.4 1.6 4.7
v 0.5 1.5 4.7
v 0.5 1.6 4.7
v -0.5 1.5 4.3
v -0.5 1.6 4.3
v -0.4 1.5 4.3
v -0.4 1.6 4.3
v 0.4 1.5 4.3
v 0.4 1.6 4.3
v 0.5 1.5 4.3
v 0.5 1.6 4.3
v -0.6 0.9 4
v -0.6 1.5 4
v -0.4 1.3 4
v -0.4 1.5 4
v 0.4 1.3 4
v 0.4 1.5 4
v 0.6 0.9 4
v 0.6 1.5 4
v -0.6 0.9 6
v 0.6 0.9 6
v -0.6 0.9 4
v 0.6 0.9 4
v -0.6 1.5 6
v 0.6 1.5 6
v -0.4 1.5 5.9
v -0.3 1.5 5.9
v 0.3 1.5 5.9
v 0.4 1.5 5.9
v -0.4 1.5 5.8
v -0.3 1.5 5.8
v 0.3 1.5 5.8
v 0.4 1.5 5.8
v -0.5 1.5 5.6
v -0.4 1.5 5.6
v 0.4 1.5 5.6
v 0.5 1.5 5.6
v -0.5 1.5 5.5
v -0.4 1.5 5.5
v 0.4 1.5 5.5
v 0.5 1.5 5.5
v -0.5 1.5 5.2
v -0.4 1.5 5.2
v 0.4 1.5 5.2
v 0.5 1.5 5.2
v -0.5 1.5 5.1
v -0.4 1.5 5.1
v 0.4 1.5 5.1
v 0.5 1.5 5.1
v -0.5 1.5 4.8
v -0.4 1.5 4.8
v 0.4 1.5 4.8
v 0.5 1.5 4.8
v -0.5 1.5 4.7
v -0.4 1.5 4.7
v 0.4 1.5 4.7
v 0.5 1.5 4.7
v -0.5 1.5 4.4
v -0.4 1.5 4.4
v 0.4 1.5 4.4
v 0.5 1.5 4.4
v -0.5 1.5 4.3
v -0.4 1.5 4.3
v 0.4 1.5 4.3
v 0.5 1.5 4.3
v -0.6 1.5 4
v -0.4 1.5 4
v 0.4 1.5 4
v 0.6 1.5 4
v -0.4 1.6 5.9
v -0.3 1.6 5.9
v 0.3 1.6 5.9
v 0.4 1.6 5.9
v -0.4 1.6 5.8
v -0.3 1.6 5.8
v 0.3 1.6 5.8
v 0.4 1.6 5.8
v -0.5 1.6 5.6
v -0.4 1.6 5.6
v 0.4 1.6 5.6
v 0.5 1.6 5.6
v -0.5 1.6 5.5
v -0.4 1.6 5.5
v 0.4 1.6 5.5
v 0.5 1.6 5.5
v -0.5 1.6 5.2
v -0.4 1.6 5.2
v 0.4 1.6 5.2
v 0.5 1.6 5.2
v -0.5 1.6 5.1
v -0.4 1.6 5.1
v 0.4 1.6 5.1
v 0.5 1.6 5.1
v -0.5 1.6 4.8
v -0.4 1.6 4.8
v 0.4 1.6 4.8
v 0.5 1.6 4.8
v -0.5 1.6 4.7
v -0.4 1.6 4.7
v 0.4 1.6 4.7
v 0.5 1.6 4.7
v -0.5 1.6 4.4
v -0.4 1.6 4.4
v 0.4 1.6 4.4
v 0.5 1.6 4.4
v -0.5 1.6 4.3
v -0.4 1.6 4.3
v 0.4 1.6 4.3
v 0.5 1.6 4.3

# faces
f 3/1/1 2/1/1 1/1/1
f 4/1/1 2/1/1 3/1/1
f 13/3/1 6/3/1 5/3/1
f 14/3/1 6/3/1 13/3/1
f 15/3/1 8/3/1 7/3/1
f 16/3/1 8/3/1 15/3/1
f 17/3/1 10/3/1 9/3/1
f 18/3/1 10/3/1 17/3/1
f 19/3/1 12/3/1 11/3/1
f 20/3/1 12/3/1 19/3/1
f 23/3/1 22/3/1 21/3/1
f 24/3/1 22/3/1 23/3/1
f 27/3/1 26/3/1 25/3/1
f 28/3/1 26/3/1 27/3/1
f 37/3/1 30/3/1 29/3/1
f 38/3/1 30/3/1 37/3/1
f 39/3/1 32/3/1 31/3/1
f 40/3/1 32/3/1 39/3/1
f 41/3/1 34/3/1 33/3/1
f 42/3/1 34/3/1 41/3/1
f 43/3/1 36/3/1 35/3/1
f 44/3/1 36/3/1 43/3/1
f 45/3/2 46/3/2 53/3/2
f 53/3/2 46/3/2 54/3/2
f 47/3/2 48/3/2 55/3/2
f 55/3/2 48/3/2 56/3/2
f 49/3/2 50/3/2 57/3/2
f 57/3/2 50/3/2 58/3/2
f 51/3/2 52/3/2 59/3/2
f 59/3/2 52/3/2 60/3/2
f 61/3/2 62/3/2 63/3/2
f 63/3/2 62/3/2 64/3/2
f 65/3/2 66/3/2 67/3/2
f 67/3/2 66/3/2 68/3/2
f 69/3/2 70/3/2 77/3/2
f 77/3/2 70/3/2 78/3/2
f 71/3/2 72/3/2 79/3/2
f 79/3/2 72/3/2 80/3/2
f 73/3/2 74/3/2 81/3/2
f 81/3/2 74/3/2 82/3/2
f 75/3/2 76/3/2 83/3/2
f 83/3/2 76/3/2 84/3/2
f 85/1/2 86/1/2 87/1/2
f 87/1/2 86/1/2 88/1/2
f 91/1/3 90/1/3 89/1/3
f 92/1/3 90/1/3 91/1/3
f 95/3/3 94/3/3 93/3/3
f 96/3/3 94/3/3 95/3/3
f 99/3/3 98/3/3 97/3/3
f 100/3/3 98/3/3 99/3/3
f 103/3/3 102/3/3 101/3/3
f 104/3/3 102/3/3 103/3/3
f 107/3/3 106/3/3 105/3/3
f 108/3/3 106/3/3 107/3/3
f 111/3/3 110/3/3 109/3/3
f 112/3/3 110/3/3 111/3/3
f 115/3/3 114/3/3 113/3/3
f 116/3/3 114/3/3 115/3/3
f 119/3/3 118/3/3 117/3/3
f 120/3/3 118/3/3 119/3/3
f 123/3/3 122/3/3 121/3/3
f 124/3/3 122/3/3 123/3/3
f 127/3/3 126/3/3 125/3/3
f 128/3/3 126/3/3 127/3/3
f 131/3/3 130/3/3 129/3/3
f 132/3/3 130/3/3 131/3/3
f 133/3/4 134/3/4 135/3/4
f 135/3/4 134/3/4 136/3/4
f 137/3/4 138/3/4 139/3/4
f 139/3/4 138/3/4 140/3/4
f 141/3/4 142/3/4 143/3/4
f 143/3/4 142/3/4 144/3/4
f 145/3/4 146/3/4 147/3/4
f 147/3/4 146/3/4 148/3/4
f 149/3/4 150/3/4 151/3/4
f 151/3/4 150/3/4 152/3/4
f 153/3/4 154/3/4 155/3/4
f 155/3/4 154/3/4 156/3/4
f 157/3/4 158/3/4 159/3/4
f 159/3/4 158/3/4 160/3/4
f 161/3/4 162/3/4 163/3/4
f 163/3/4 162/3/4 164/3/4
f 165/3/4 166/3/4 167/3/4
f 167/3/4 166/3/4 168/3/4
f 169/3/4 170/3/4 171/3/4
f 171/3/4 170/3/4 172/3/4
f 173/1/4 174/1/4 175/1/4
f 175/1/4 174/1/4 176/1/4
f 173/1/4 175/1/4 177/1/4
f 175/2/4 176/2/4 177/2/4
f 177/2/4 176/2/4 178/2/4
f 173/1/4 177/1/4 179/1/4
f 177/1/4 178/1/4 179/1/4
f 179/1/4 178/1/4 180/1/4
f 183/1/5 182/1/5 181/1/5
f 184/1/5 182/1/5 183/1/5
f 185/1/6 186/1/6 187/1/6
f 187/1/6 186/1/6 188/1/6
f 188/1/6 186/1/6 189/1/6
f 189/1/6 186/1/6 190/1/6
f 185/1/6 187/1/6 191/1/6
f 188/1/6 189/1/6 192/1/6
f 192/1/6 189/1/6 193/1/6
f 190/1/6 186/1/6 194/1/6
f 185/1/6 191/1/6 195/1/6
f 192/2/6 193/2/6 196/2/6
f 195/1/6 191/1/6 196/1/6
f 193/2/6 194/2/6 196/2/6
f 191/2/6 192/2/6 196/2/6
f 194/1/6 186/1/6 197/1/6
f 196/2/6 194/2/6 197/2/6
f 197/1/6 186/1/6 198/1/6
f 185/1/6 195/1/6 199/1/6
f 196/2/6 197/2/6 200/2/6
f 200/2/6 197/2/6 201/2/6
f 198/1/6 186/1/6 202/1/6
f 185/1/6 199/1/6 203/1/6
f 199/1/6 200/1/6 203/1/6
f 200/2/6 201/2/6 204/2/6
f 203/1/6 200/1/6 204/1/6
f 201/1/6 202/1/6 205/1/6
f 204/2/6 201/2/6 205/2/6
f 202/1/6 186/1/6 206/1/6
f 205/1/6 202/1/6 206/1/6
f 185/1/6 203/1/6 207/1/6
f 204/2/6 205/2/6 208/2/6
f 208/2/6 205/2/6 209/2/6
f 206/1/6 186/1/6 210/1/6
f 185/1/6 207/1/6 211/1/6
f 207/1/6 208/1/6 211/1/6
f 208/2/6 209/2/6 212/2/6
f 211/1/6 208/1/6 212/1/6
f 209/1/6 210/1/6 213/1/6
f 212/2/6 209/2/6 213/2/6
f 210/1/6 186/1/6 214/1/6
f 213/1/6 210/1/6 214/1/6
f 185/1/6 211/1/6 215/1/6
f 212/2/6 213/2/6 216/2/6
f 216/2/6 213/2/6 217/2/6
f 214/1/6 186/1/6 218/1/6
f 185/1/6 215/1/6 219/1/6
f 215/1/6 216/1/6 219/1/6
f 216/2/6 217/2/6 220/2/6
f 219/1/6 216/1/6 220/1/6
f 217/1/6 218/1/6 221/1/6
f 220/2/6 217/2/6 221/2/6
f 218/1/6 186/1/6 222/1/6
f 221/1/6 218/1/6 222/1/6
f 185/1/6 219/1/6 223/1/6
f 220/2/6 221/2/6 224/2/6
f 224/2/6 221/2/6 225/2/6
f 222/1/6 186/1/6 226/1/6
f 185/1/6 223/1/6 227/1/6
f 223/1/6 224/1/6 227/1/6
f 224/2/6 225/2/6 228/2/6
f 227/1/6 224/1/6 228/1/6
f 225/1/6 226/1/6 229/1/6
f 228/2/6 225/2/6 229/2/6
f 226/1/6 186/1/6 230/1/6
f 229/1/6 226/1/6 230/1/6
f 231/3/6 232/3/6 235/3/6
f 235/3/6 232/3/6 236/3/6
f 233/3/6 234/3/6 237/3/6
f 237/3/6 234/3/6 238/3/6
f 239/3/6 240/3/6 243/3/6
f 243/3/6 240/3/6 244/3/6
f 241/3/6 242/3/6 245/3/6
f 245/3/6 242/3/6 246/3/6
f 247/3/6 248/3/6 251/3/6
f 251/3/6 248/3/6 252/3/6
f 249/3/6 250/3/6 253/3/6
f 253/3/6 250/3/6 254/3/6
f 255/3/6 256/3/6 259/3/6
f 259/3/6 256/3/6 260/3/6
f 257/3/6 258/3/6 261/3/6
f 261/3/6 258/3/6 262/3/6
f 263/3/6 264/3/6 267/3/6
f 267/3/6 264/3/6 268/3/6
f 265/3/6 266/3/6 269/3/6
f 269/3/6 266/3/6 270/3/6
